<svg xmlns="http://www.w3.org/2000/svg" width="52" height="53" viewBox="0 0 52 53" fill="none" xmlns:xlink="http://www.w3.org/1999/xlink">
<path d="M11.4617 27.7246C13.317 27.7246 14.8783 29.087 15.1941 30.8574C16.9571 29.8866 19.2653 28.6738 20.323 28.3535C23.248 27.4435 33.1289 29.1333 35.4255 30.9316C36.6294 31.8777 37.1653 33.0118 37.3103 34.1328C39.8059 32.2622 41.1231 31.3565 42.1414 31.1484C43.918 30.8018 45.3052 30.5199 47.1902 31.8633C48.8151 33.0332 49.5086 34.9832 49.1404 37.3447C48.6637 40.4431 41.1233 46.0114 41.0583 46.0547C37.7868 48.1996 32.0671 49.5869 29.2937 49.5869V49.6084C29.012 49.6084 28.7731 49.6078 28.5564 49.5645C25.9567 49.2178 23.162 48.4603 20.9089 47.832C19.6523 47.4854 18.5467 47.1814 17.9617 47.0947C17.8035 47.075 17.1779 47.0015 15.0222 47.0703C14.4877 48.5197 13.087 49.5645 11.4617 49.5645H6.56519C4.48527 49.5645 2.77333 47.8533 2.77319 45.7734V31.5166C2.77319 29.4366 4.48519 27.7246 6.56519 27.7246H11.4617ZM33.4314 33.4883C32.0661 32.4267 23.379 30.8231 21.2986 31.4512C20.3892 31.7477 17.3157 33.3977 15.2537 34.5566V43.8223C17.6232 43.778 18.2267 43.8525 18.4382 43.9102C19.1966 44.0185 20.3237 44.3219 21.7537 44.7119C23.9203 45.2969 26.5853 46.0334 28.9685 46.3584C30.3335 46.5317 36.1403 45.4265 39.282 43.3682C40.9504 42.2847 45.5864 38.0602 45.9333 36.8467C46.0417 36.1101 46.0202 35.0486 45.2839 34.5068C44.6123 34.0085 44.4385 34.008 42.7703 34.333C42.2069 34.5063 40.1486 36.0449 38.9353 36.9766C37.5704 38.0165 36.3786 38.9047 35.5769 39.3164C33.9952 40.1397 32.5652 40.5518 31.2869 40.5518L26.5417 40.0967C25.6536 40.01 25.0041 39.2085 25.0906 38.3203C25.1772 37.432 25.9569 36.7598 26.8669 36.8682L31.4382 37.3232C31.8986 37.3232 32.6873 37.0872 33.5789 36.6709L33.5183 36.6299C33.735 36.3049 34.7747 34.5499 33.4314 33.4883ZM6.56519 30.9746C6.26185 30.9746 6.02319 31.2133 6.02319 31.5166V45.7734C6.02332 46.0767 6.26194 46.3145 6.56519 46.3145H11.4617C11.7649 46.3145 12.0035 46.0767 12.0037 45.7734V31.5166C12.0037 31.2133 11.765 30.9746 11.4617 30.9746H6.56519Z" fill="#242328"/>
<path d="M29.2709 16.3229C29.2709 9.45729 34.7282 4 41.5938 4C41.5938 10.8656 36.1365 16.3229 29.2709 16.3229Z" stroke="#222222" stroke-width="3.25" stroke-miterlimit="10" stroke-linecap="round" stroke-linejoin="round"/>
<path d="M29.2709 16.3229C29.2709 9.45729 34.7282 4 41.5938 4C41.5938 10.8656 36.1365 16.3229 29.2709 16.3229Z" stroke="black" stroke-opacity="0.2" stroke-width="3.25" stroke-miterlimit="10" stroke-linecap="round" stroke-linejoin="round"/>
<path d="M28.3229 21.1567C21.4573 21.1567 16 15.6994 16 8.83374C22.8656 8.83374 28.3229 14.291 28.3229 21.1567Z" stroke="#222222" stroke-width="3.25" stroke-miterlimit="10" stroke-linecap="round" stroke-linejoin="round"/>
<path d="M28.3229 21.1567C21.4573 21.1567 16 15.6994 16 8.83374C22.8656 8.83374 28.3229 14.291 28.3229 21.1567Z" stroke="black" stroke-opacity="0.2" stroke-width="3.25" stroke-miterlimit="10" stroke-linecap="round" stroke-linejoin="round"/>
<path d="M29 15.3337L29 28.3337" stroke="#222222" stroke-width="3.25" stroke-miterlimit="10" stroke-linecap="round" stroke-linejoin="round"/>
<path d="M29 15.3337L29 28.3337" stroke="black" stroke-opacity="0.2" stroke-width="3.25" stroke-miterlimit="10" stroke-linecap="round" stroke-linejoin="round"/>
</svg>